<svg width="94" height="43" viewBox="0 0 94 43" fill="none" xmlns="http://www.w3.org/2000/svg">
<path d="M15.323 12.928C15.3977 12.928 15.463 12.9583 15.519 13.019L16.058 13.6C15.6473 14.076 15.148 14.447 14.56 14.713C13.9767 14.979 13.2697 15.112 12.439 15.112C11.7203 15.112 11.067 14.9883 10.479 14.741C9.891 14.489 9.38933 14.139 8.974 13.691C8.55867 13.2383 8.23667 12.697 8.008 12.067C7.77933 11.437 7.665 10.744 7.665 9.988C7.665 9.232 7.784 8.539 8.022 7.909C8.26 7.279 8.59367 6.73767 9.023 6.285C9.457 5.83233 9.975 5.48233 10.577 5.235C11.179 4.983 11.844 4.857 12.572 4.857C13.286 4.857 13.916 4.97133 14.462 5.2C15.008 5.42867 15.4887 5.739 15.904 6.131L15.456 6.754C15.428 6.80067 15.3907 6.84033 15.344 6.873C15.302 6.901 15.2437 6.915 15.169 6.915C15.085 6.915 14.9823 6.87067 14.861 6.782C14.7397 6.68867 14.581 6.586 14.385 6.474C14.189 6.362 13.944 6.26167 13.65 6.173C13.356 6.07967 12.9943 6.033 12.565 6.033C12.047 6.033 11.5733 6.124 11.144 6.306C10.7147 6.48333 10.3437 6.74233 10.031 7.083C9.723 7.42367 9.48267 7.839 9.31 8.329C9.13733 8.819 9.051 9.372 9.051 9.988C9.051 10.6133 9.13967 11.171 9.317 11.661C9.499 12.151 9.744 12.5663 10.052 12.907C10.3647 13.243 10.731 13.4997 11.151 13.677C11.5757 13.8543 12.033 13.943 12.523 13.943C12.8217 13.943 13.09 13.9267 13.328 13.894C13.5707 13.8567 13.7923 13.8007 13.993 13.726C14.1983 13.6513 14.3873 13.558 14.56 13.446C14.7373 13.3293 14.9123 13.1917 15.085 13.033C15.1643 12.963 15.2437 12.928 15.323 12.928ZM22.5116 8.854C22.8149 8.532 23.1509 8.27533 23.5196 8.084C23.8882 7.89267 24.3129 7.797 24.7936 7.797C25.1809 7.797 25.5216 7.86233 25.8156 7.993C26.1142 8.119 26.3616 8.301 26.5576 8.539C26.7582 8.77233 26.9099 9.05467 27.0126 9.386C27.1152 9.71733 27.1666 10.0837 27.1666 10.485V15H25.9136V10.485C25.9136 9.94833 25.7899 9.533 25.5426 9.239C25.2999 8.94033 24.9289 8.791 24.4296 8.791C24.0609 8.791 23.7156 8.87967 23.3936 9.057C23.0762 9.23433 22.7822 9.47467 22.5116 9.778V15H21.2586V4.689H22.5116V8.854ZM34.1682 9.33C34.3922 8.84467 34.6675 8.46667 34.9942 8.196C35.3209 7.92067 35.7199 7.783 36.1912 7.783C36.3405 7.783 36.4829 7.79933 36.6182 7.832C36.7582 7.86467 36.8819 7.916 36.9892 7.986L36.8982 8.917C36.8702 9.03367 36.8002 9.092 36.6882 9.092C36.6229 9.092 36.5272 9.078 36.4012 9.05C36.2752 9.022 36.1329 9.008 35.9742 9.008C35.7502 9.008 35.5495 9.04067 35.3722 9.106C35.1995 9.17133 35.0432 9.26933 34.9032 9.4C34.7679 9.526 34.6442 9.68467 34.5322 9.876C34.4249 10.0627 34.3269 10.2773 34.2382 10.52V15H32.9852V7.909H33.6992C33.8345 7.909 33.9279 7.93467 33.9792 7.986C34.0305 8.03733 34.0655 8.126 34.0842 8.252L34.1682 9.33ZM43.3208 7.909V15H42.0748V7.909H43.3208ZM43.5868 5.683C43.5868 5.80433 43.5611 5.91867 43.5098 6.026C43.4631 6.12867 43.3978 6.222 43.3138 6.306C43.2345 6.38533 43.1388 6.44833 43.0268 6.495C42.9195 6.54167 42.8051 6.565 42.6838 6.565C42.5625 6.565 42.4481 6.54167 42.3408 6.495C42.2381 6.44833 42.1471 6.38533 42.0678 6.306C41.9885 6.222 41.9255 6.12867 41.8788 6.026C41.8321 5.91867 41.8088 5.80433 41.8088 5.683C41.8088 5.56167 41.8321 5.44733 41.8788 5.34C41.9255 5.228 41.9885 5.13233 42.0678 5.053C42.1471 4.969 42.2381 4.90367 42.3408 4.857C42.4481 4.81033 42.5625 4.787 42.6838 4.787C42.8051 4.787 42.9195 4.81033 43.0268 4.857C43.1388 4.90367 43.2345 4.969 43.3138 5.053C43.3978 5.13233 43.4631 5.228 43.5098 5.34C43.5611 5.44733 43.5868 5.56167 43.5868 5.683ZM53.4181 9.078C53.3621 9.18067 53.2758 9.232 53.1591 9.232C53.0891 9.232 53.0098 9.20633 52.9211 9.155C52.8324 9.10367 52.7228 9.04767 52.5921 8.987C52.4661 8.92167 52.3144 8.86333 52.1371 8.812C51.9598 8.756 51.7498 8.728 51.5071 8.728C51.2971 8.728 51.1081 8.756 50.9401 8.812C50.7721 8.86333 50.6274 8.93567 50.5061 9.029C50.3894 9.12233 50.2984 9.232 50.2331 9.358C50.1724 9.47933 50.1421 9.61233 50.1421 9.757C50.1421 9.939 50.1934 10.0907 50.2961 10.212C50.4034 10.3333 50.5434 10.4383 50.7161 10.527C50.8888 10.6157 51.0848 10.695 51.3041 10.765C51.5234 10.8303 51.7474 10.9027 51.9761 10.982C52.2094 11.0567 52.4358 11.1407 52.6551 11.234C52.8744 11.3273 53.0704 11.444 53.2431 11.584C53.4158 11.724 53.5534 11.8967 53.6561 12.102C53.7634 12.3027 53.8171 12.5453 53.8171 12.83C53.8171 13.1567 53.7588 13.46 53.6421 13.74C53.5254 14.0153 53.3528 14.2557 53.1241 14.461C52.8954 14.6617 52.6154 14.8203 52.2841 14.937C51.9528 15.0537 51.5701 15.112 51.1361 15.112C50.6414 15.112 50.1934 15.0327 49.7921 14.874C49.3908 14.7107 49.0501 14.503 48.7701 14.251L49.0641 13.775C49.1014 13.7143 49.1458 13.6677 49.1971 13.635C49.2484 13.6023 49.3138 13.586 49.3931 13.586C49.4771 13.586 49.5658 13.6187 49.6591 13.684C49.7524 13.7493 49.8644 13.8217 49.9951 13.901C50.1304 13.9803 50.2938 14.0527 50.4851 14.118C50.6764 14.1833 50.9144 14.216 51.1991 14.216C51.4418 14.216 51.6541 14.1857 51.8361 14.125C52.0181 14.0597 52.1698 13.9733 52.2911 13.866C52.4124 13.7587 52.5011 13.635 52.5571 13.495C52.6178 13.355 52.6481 13.2057 52.6481 13.047C52.6481 12.851 52.5944 12.69 52.4871 12.564C52.3844 12.4333 52.2468 12.3237 52.0741 12.235C51.9014 12.1417 51.7031 12.0623 51.4791 11.997C51.2598 11.927 51.0334 11.8547 50.8001 11.78C50.5714 11.7053 50.3451 11.6213 50.1211 11.528C49.9018 11.43 49.7058 11.3087 49.5331 11.164C49.3604 11.0193 49.2204 10.842 49.1131 10.632C49.0104 10.4173 48.9591 10.1583 48.9591 9.855C48.9591 9.58433 49.0151 9.32533 49.1271 9.078C49.2391 8.826 49.4024 8.60667 49.6171 8.42C49.8318 8.22867 50.0954 8.077 50.4081 7.965C50.7208 7.853 51.0778 7.797 51.4791 7.797C51.9458 7.797 52.3634 7.87167 52.7321 8.021C53.1054 8.16567 53.4274 8.36633 53.6981 8.623L53.4181 9.078ZM65.8447 15H64.5987V8.952H60.9447V13.208C60.9447 13.5067 61.0171 13.7283 61.1617 13.873C61.3064 14.0177 61.4931 14.09 61.7217 14.09C61.8524 14.09 61.9644 14.0737 62.0577 14.041C62.1557 14.0037 62.2397 13.964 62.3097 13.922C62.3797 13.88 62.4381 13.8427 62.4847 13.81C62.5361 13.7727 62.5804 13.754 62.6177 13.754C62.6831 13.754 62.7414 13.7937 62.7927 13.873L63.1567 14.468C62.9421 14.6687 62.6831 14.8273 62.3797 14.944C62.0764 15.056 61.7637 15.112 61.4417 15.112C60.8817 15.112 60.4501 14.9557 60.1467 14.643C59.8481 14.3303 59.6987 13.88 59.6987 13.292V8.952H58.8447C58.7701 8.952 58.7071 8.931 58.6557 8.889C58.6044 8.84233 58.5787 8.77233 58.5787 8.679V8.182L59.7407 8.028L60.0277 5.844C60.0417 5.774 60.0721 5.718 60.1187 5.676C60.1701 5.62933 60.2354 5.606 60.3147 5.606H60.9447V8.049H65.8447V15ZM66.1527 5.634C66.1527 5.75533 66.1271 5.86967 66.0757 5.977C66.0291 6.07967 65.9637 6.17067 65.8797 6.25C65.8004 6.32933 65.7071 6.39233 65.5997 6.439C65.4924 6.48567 65.3781 6.509 65.2567 6.509C65.1354 6.509 65.0211 6.48567 64.9137 6.439C64.8111 6.39233 64.7201 6.32933 64.6407 6.25C64.5614 6.17067 64.4984 6.07967 64.4517 5.977C64.4051 5.86967 64.3817 5.75533 64.3817 5.634C64.3817 5.51267 64.4051 5.39833 64.4517 5.291C64.4984 5.179 64.5614 5.08333 64.6407 5.004C64.7201 4.92 64.8111 4.85467 64.9137 4.808C65.0211 4.76133 65.1354 4.738 65.2567 4.738C65.3781 4.738 65.4924 4.76133 65.5997 4.808C65.7071 4.85467 65.8004 4.92 65.8797 5.004C65.9637 5.08333 66.0291 5.179 66.0757 5.291C66.1271 5.39833 66.1527 5.51267 66.1527 5.634ZM72.9877 8.938C73.1417 8.76533 73.305 8.609 73.4777 8.469C73.6504 8.329 73.8324 8.21 74.0237 8.112C74.2197 8.00933 74.425 7.93233 74.6397 7.881C74.859 7.825 75.0947 7.797 75.3467 7.797C75.734 7.797 76.0747 7.86233 76.3687 7.993C76.6674 8.119 76.9147 8.301 77.1107 8.539C77.3114 8.77233 77.463 9.05467 77.5657 9.386C77.6684 9.71733 77.7197 10.0837 77.7197 10.485V15H76.4667V10.485C76.4667 9.94833 76.343 9.533 76.0957 9.239C75.853 8.94033 75.482 8.791 74.9827 8.791C74.614 8.791 74.2687 8.87967 73.9467 9.057C73.6294 9.23433 73.3354 9.47467 73.0647 9.778V15H71.8117V7.909H72.5607C72.738 7.909 72.8477 7.99533 72.8897 8.168L72.9877 8.938ZM87.3813 11.808C86.8073 11.8267 86.3173 11.8733 85.9113 11.948C85.51 12.018 85.181 12.1113 84.9243 12.228C84.6723 12.3447 84.488 12.4823 84.3713 12.641C84.2593 12.7997 84.2033 12.977 84.2033 13.173C84.2033 13.3597 84.2337 13.5207 84.2943 13.656C84.355 13.7913 84.4367 13.9033 84.5393 13.992C84.6467 14.076 84.7703 14.139 84.9103 14.181C85.055 14.2183 85.209 14.237 85.3723 14.237C85.5917 14.237 85.7923 14.216 85.9743 14.174C86.1563 14.1273 86.3267 14.062 86.4853 13.978C86.6487 13.894 86.8027 13.7937 86.9473 13.677C87.0967 13.5603 87.2413 13.4273 87.3813 13.278V11.808ZM83.3563 8.91C83.7483 8.532 84.1707 8.24967 84.6233 8.063C85.076 7.87633 85.5777 7.783 86.1283 7.783C86.525 7.783 86.8773 7.84833 87.1853 7.979C87.4933 8.10967 87.7523 8.29167 87.9623 8.525C88.1723 8.75833 88.331 9.04067 88.4383 9.372C88.5457 9.70333 88.5993 10.0673 88.5993 10.464V15H88.0463C87.925 15 87.8317 14.9813 87.7663 14.944C87.701 14.902 87.6497 14.8227 87.6123 14.706L87.4723 14.034C87.2857 14.2067 87.1037 14.3607 86.9263 14.496C86.749 14.6267 86.5623 14.7387 86.3663 14.832C86.1703 14.9207 85.9603 14.9883 85.7363 15.035C85.517 15.0863 85.272 15.112 85.0013 15.112C84.726 15.112 84.467 15.0747 84.2243 15C83.9817 14.9207 83.7693 14.804 83.5873 14.65C83.41 14.496 83.2677 14.3023 83.1603 14.069C83.0577 13.831 83.0063 13.551 83.0063 13.229C83.0063 12.949 83.0833 12.6807 83.2373 12.424C83.3913 12.1627 83.641 11.9317 83.9863 11.731C84.3317 11.5303 84.782 11.367 85.3373 11.241C85.8927 11.1103 86.574 11.0357 87.3813 11.017V10.464C87.3813 9.91333 87.2623 9.498 87.0243 9.218C86.7863 8.93333 86.4387 8.791 85.9813 8.791C85.6733 8.791 85.4143 8.83067 85.2043 8.91C84.999 8.98467 84.8193 9.071 84.6653 9.169C84.516 9.26233 84.3853 9.34867 84.2733 9.428C84.166 9.50267 84.0587 9.54 83.9513 9.54C83.8673 9.54 83.795 9.519 83.7343 9.477C83.6737 9.43033 83.6223 9.37433 83.5803 9.309L83.3563 8.91Z" fill="black"/>
<path d="M0 22L94 21" stroke="#BB5337"/>
<path d="M24.323 36.928C24.3977 36.928 24.463 36.9583 24.519 37.019L25.058 37.6C24.6473 38.076 24.148 38.447 23.56 38.713C22.9767 38.979 22.2697 39.112 21.439 39.112C20.7203 39.112 20.067 38.9883 19.479 38.741C18.891 38.489 18.3893 38.139 17.974 37.691C17.5587 37.2383 17.2367 36.697 17.008 36.067C16.7793 35.437 16.665 34.744 16.665 33.988C16.665 33.232 16.784 32.539 17.022 31.909C17.26 31.279 17.5937 30.7377 18.023 30.285C18.457 29.8323 18.975 29.4823 19.577 29.235C20.179 28.983 20.844 28.857 21.572 28.857C22.286 28.857 22.916 28.9713 23.462 29.2C24.008 29.4287 24.4887 29.739 24.904 30.131L24.456 30.754C24.428 30.8007 24.3907 30.8403 24.344 30.873C24.302 30.901 24.2437 30.915 24.169 30.915C24.085 30.915 23.9823 30.8707 23.861 30.782C23.7397 30.6887 23.581 30.586 23.385 30.474C23.189 30.362 22.944 30.2617 22.65 30.173C22.356 30.0797 21.9943 30.033 21.565 30.033C21.047 30.033 20.5733 30.124 20.144 30.306C19.7147 30.4833 19.3437 30.7423 19.031 31.083C18.723 31.4237 18.4827 31.839 18.31 32.329C18.1373 32.819 18.051 33.372 18.051 33.988C18.051 34.6133 18.1397 35.171 18.317 35.661C18.499 36.151 18.744 36.5663 19.052 36.907C19.3647 37.243 19.731 37.4997 20.151 37.677C20.5757 37.8543 21.033 37.943 21.523 37.943C21.8217 37.943 22.09 37.9267 22.328 37.894C22.5707 37.8567 22.7923 37.8007 22.993 37.726C23.1983 37.6513 23.3873 37.558 23.56 37.446C23.7373 37.3293 23.9123 37.1917 24.085 37.033C24.1643 36.963 24.2437 36.928 24.323 36.928ZM31.5116 32.854C31.8149 32.532 32.1509 32.2753 32.5196 32.084C32.8882 31.8927 33.3129 31.797 33.7936 31.797C34.1809 31.797 34.5216 31.8623 34.8156 31.993C35.1142 32.119 35.3616 32.301 35.5576 32.539C35.7582 32.7723 35.9099 33.0547 36.0126 33.386C36.1152 33.7173 36.1666 34.0837 36.1666 34.485V39H34.9136V34.485C34.9136 33.9483 34.7899 33.533 34.5426 33.239C34.2999 32.9403 33.9289 32.791 33.4296 32.791C33.0609 32.791 32.7156 32.8797 32.3936 33.057C32.0762 33.2343 31.7822 33.4747 31.5116 33.778V39H30.2586V28.689H31.5116V32.854ZM46.7312 34.681C46.7312 34.3917 46.6892 34.128 46.6052 33.89C46.5259 33.6473 46.4069 33.4397 46.2482 33.267C46.0942 33.0897 45.9052 32.9543 45.6812 32.861C45.4572 32.763 45.2029 32.714 44.9182 32.714C44.3209 32.714 43.8472 32.889 43.4972 33.239C43.1519 33.5843 42.9372 34.065 42.8532 34.681H46.7312ZM47.7392 38.006C47.5852 38.1927 47.4009 38.356 47.1862 38.496C46.9715 38.6313 46.7405 38.7433 46.4932 38.832C46.2505 38.9207 45.9985 38.986 45.7372 39.028C45.4759 39.0747 45.2169 39.098 44.9602 39.098C44.4702 39.098 44.0175 39.0163 43.6022 38.853C43.1915 38.685 42.8345 38.4423 42.5312 38.125C42.2325 37.803 41.9992 37.4063 41.8312 36.935C41.6632 36.4637 41.5792 35.9223 41.5792 35.311C41.5792 34.8163 41.6539 34.3543 41.8032 33.925C41.9572 33.4957 42.1765 33.1247 42.4612 32.812C42.7459 32.4947 43.0935 32.2473 43.5042 32.07C43.9149 31.888 44.3769 31.797 44.8902 31.797C45.3149 31.797 45.7069 31.8693 46.0662 32.014C46.4302 32.154 46.7429 32.3593 47.0042 32.63C47.2702 32.896 47.4779 33.2273 47.6272 33.624C47.7765 34.016 47.8512 34.464 47.8512 34.968C47.8512 35.164 47.8302 35.2947 47.7882 35.36C47.7462 35.4253 47.6669 35.458 47.5502 35.458H42.8112C42.8252 35.906 42.8859 36.2957 42.9932 36.627C43.1052 36.9583 43.2592 37.236 43.4552 37.46C43.6512 37.6793 43.8845 37.845 44.1552 37.957C44.4259 38.0643 44.7292 38.118 45.0652 38.118C45.3779 38.118 45.6462 38.083 45.8702 38.013C46.0989 37.9383 46.2949 37.859 46.4582 37.775C46.6215 37.691 46.7569 37.614 46.8642 37.544C46.9762 37.4693 47.0719 37.432 47.1512 37.432C47.2539 37.432 47.3332 37.4717 47.3892 37.551L47.7392 38.006ZM54.5547 28.689V34.758H54.8767C54.97 34.758 55.047 34.7463 55.1077 34.723C55.173 34.695 55.2407 34.6413 55.3107 34.562L57.5507 32.161C57.616 32.0817 57.6837 32.021 57.7537 31.979C57.8284 31.9323 57.9264 31.909 58.0477 31.909H59.1747L56.5637 34.688C56.4377 34.8467 56.3024 34.9703 56.1577 35.059C56.2417 35.115 56.3164 35.1803 56.3817 35.255C56.4517 35.325 56.517 35.4067 56.5777 35.5L59.3497 39H58.2367C58.1294 39 58.036 38.9837 57.9567 38.951C57.882 38.9137 57.8167 38.8483 57.7607 38.755L55.4297 35.85C55.3597 35.752 55.2897 35.689 55.2197 35.661C55.1544 35.6283 55.0517 35.612 54.9117 35.612H54.5547V39H53.3017V28.689H54.5547ZM65.5841 32.854C65.8874 32.532 66.2234 32.2753 66.5921 32.084C66.9607 31.8927 67.3854 31.797 67.8661 31.797C68.2534 31.797 68.5941 31.8623 68.8881 31.993C69.1867 32.119 69.4341 32.301 69.6301 32.539C69.8307 32.7723 69.9824 33.0547 70.0851 33.386C70.1877 33.7173 70.2391 34.0837 70.2391 34.485V39H68.9861V34.485C68.9861 33.9483 68.8624 33.533 68.6151 33.239C68.3724 32.9403 68.0014 32.791 67.5021 32.791C67.1334 32.791 66.7881 32.8797 66.4661 33.057C66.1487 33.2343 65.8547 33.4747 65.5841 33.778V39H64.3311V28.689H65.5841V32.854ZM79.0467 31.797C79.5647 31.797 80.0314 31.8833 80.4467 32.056C80.862 32.2287 81.2167 32.4737 81.5107 32.791C81.8047 33.1083 82.0287 33.4933 82.1827 33.946C82.3414 34.394 82.4207 34.8957 82.4207 35.451C82.4207 36.011 82.3414 36.515 82.1827 36.963C82.0287 37.411 81.8047 37.7937 81.5107 38.111C81.2167 38.4283 80.862 38.6733 80.4467 38.846C80.0314 39.014 79.5647 39.098 79.0467 39.098C78.524 39.098 78.0527 39.014 77.6327 38.846C77.2174 38.6733 76.8627 38.4283 76.5687 38.111C76.2747 37.7937 76.0484 37.411 75.8897 36.963C75.7357 36.515 75.6587 36.011 75.6587 35.451C75.6587 34.8957 75.7357 34.394 75.8897 33.946C76.0484 33.4933 76.2747 33.1083 76.5687 32.791C76.8627 32.4737 77.2174 32.2287 77.6327 32.056C78.0527 31.8833 78.524 31.797 79.0467 31.797ZM79.0467 38.125C79.7467 38.125 80.2694 37.8917 80.6147 37.425C80.96 36.9537 81.1327 36.298 81.1327 35.458C81.1327 34.6133 80.96 33.9553 80.6147 33.484C80.2694 33.0127 79.7467 32.777 79.0467 32.777C78.692 32.777 78.3817 32.8377 78.1157 32.959C77.8544 33.0803 77.635 33.2553 77.4577 33.484C77.285 33.7127 77.1544 33.995 77.0657 34.331C76.9817 34.6623 76.9397 35.038 76.9397 35.458C76.9397 36.298 77.1124 36.9537 77.4577 37.425C77.8077 37.8917 78.3374 38.125 79.0467 38.125ZM93.8057 31.909L90.9147 39H89.7947L86.9037 31.909H87.9187C88.0213 31.909 88.1053 31.9347 88.1707 31.986C88.236 32.0373 88.2803 32.098 88.3037 32.168L90.1027 36.732C90.1587 36.9047 90.2077 37.0727 90.2497 37.236C90.2917 37.3993 90.3313 37.5627 90.3687 37.726C90.406 37.5627 90.4457 37.3993 90.4877 37.236C90.5297 37.0727 90.581 36.9047 90.6417 36.732L92.4617 32.168C92.4897 32.0933 92.5363 32.0327 92.6017 31.986C92.667 31.9347 92.744 31.909 92.8327 31.909H93.8057Z" fill="black"/>
</svg>
